# xmcd CD database file
#
# Track frame offsets:
#	150
#	15908
#	35871
#	52348
#	69015
#	84552
#	100183
#	115670
#	128818
#	141955
#	155822
#	176725
#	191652
#	214212
#	226757
#	240535
#	254167
#	267670
#	284177
#	295124
#	307779
#
# Disc length: 4369 seconds
#
# Revision: 0
# Processed by: cddbd v1.5.2PL0 Copyright (c) Steve Scherf et al.
# Submitted via: CDex 1.70beta2
#
DISCID=3f110f15
DTITLE=Various Artist - Country Series 08
DYEAR=1900
DGENRE=Country
TTITLE0=David Lee Murphy - Every Time I Get Around You
TTITLE1=John Michael Montgomery - I Swear
TTITLE2=Kenny Rogers - Lucille
TTITLE3=Ty Herndon - Loved Too Much
TTITLE4=Rhett Atkins  I Brake for Brunettes
TTITLE5=Deana Carter - Count Me In
TTITLE6=John Conlee - Rose Colored Glasses
TTITLE7=Lee Roy Parnell w/ Brooks and Dunn - Take These Chains from my Heart
TTITLE8=Chris LeDoux - Cadillac Ranch
TTITLE9=Frazier River - Tangled Up in Texas
TTITLE10=Clarence Carter - Strokin'
TTITLE11=Pam Tillis - All the Good Ones are Gone
TTITLE12=Mavericks - Children
TTITLE13=Freddy Fender - Wasted Days and Wasted Nights
TTITLE14=John Anderson - Money in the Bank
TTITLE15=David Houston - Almost Persuaded
TTITLE16=Marty Stuart - If I Ain't Got You
TTITLE17=Rodney Cromwell - Rose of Memphis
TTITLE18=Sammy Kershaw - Your Tattoo
TTITLE19=Clay Walker - What's it to You
TTITLE20=Joe Ely - Highways and Heartaches
EXTD=
EXTT0=
EXTT1=
EXTT2=
EXTT3=
EXTT4=
EXTT5=
EXTT6=
EXTT7=
EXTT8=
EXTT9=
EXTT10=
EXTT11=
EXTT12=
EXTT13=
EXTT14=
EXTT15=
EXTT16=
EXTT17=
EXTT18=
EXTT19=
EXTT20=
PLAYORDER=
